<?xml version="1.0" encoding="UTF-8"?>
<svg width="131px" height="25px" viewBox="0 0 131 25" version="1.1" xmlns="http://www.w3.org/2000/svg" xmlns:xlink="http://www.w3.org/1999/xlink">
    <title>Avery-Vine</title>
    <g id="Page-1" stroke="none" stroke-width="1" fill="none" fill-rule="evenodd">
        <g id="logo" transform="translate(-20, -5)" fill="#FFFFFF" fill-rule="nonzero">
            <g id="Avery-Vine" transform="translate(20.0088, 5.3466)">
                <path d="M16.280875,18.653375 L13.3546562,18.653375 L11.7219375,14.1622812 L4.51425,14.1622812 L2.87665625,18.653375 L-3.91919855e-23,18.653375 L6.48090625,1.493375 L9.816625,1.493375 L16.280875,18.653375 Z M5.29628125,11.8844375 L10.944375,11.8844375 L8.112,3.88375 L5.29628125,11.8844375 Z" id="Shape"></path>
                <polygon id="Path" points="26.5285471 5.653375 29.4332346 5.653375 24.2450159 18.653375 21.2009846 18.653375 16.0131721 5.653375 19.0669534 5.653375 22.7443284 16.2479687"></polygon>
                <path d="M37.4487645,18.913375 C36.1522854,18.913375 35.0107229,18.6447083 34.024077,18.107375 C33.0374312,17.5700417 32.2713791,16.7964063 31.7259208,15.7864687 C31.1804624,14.7765312 30.9077333,13.5655 30.9077333,12.153375 C30.9077333,10.74125 31.1804624,9.53021875 31.7259208,8.52028125 C32.2713791,7.51034375 33.0264624,6.73670833 33.9911708,6.199375 C34.9558791,5.66204167 36.0568166,5.393375 37.2939833,5.393375 C38.5566083,5.393375 39.6312749,5.65540625 40.5179833,6.17946875 C41.4046916,6.70353125 42.0815718,7.41602604 42.5486239,8.31695312 C43.015676,9.21788021 43.249202,10.2353333 43.249202,11.3693125 C43.249202,11.688625 43.2405354,11.986 43.223202,12.2614375 C43.2058687,12.536875 43.1798687,12.78225 43.145202,12.9975625 L32.702952,12.9975625 L32.702952,10.8562187 L41.9272645,10.8562187 L40.5537333,11.26125 C40.5537333,10.0871875 40.2565614,9.18267187 39.6622177,8.54770312 C39.0678739,7.91273437 38.2651916,7.59525 37.2541708,7.59525 C36.4952958,7.59525 35.8410302,7.77176562 35.2913739,8.12479687 C34.7417177,8.47782812 34.3204364,8.99396875 34.0275302,9.67321875 C33.7346239,10.3524687 33.5881708,11.1874479 33.5881708,12.1781562 C33.5881708,13.1515312 33.7430197,13.9759479 34.0527177,14.6514062 C34.3624156,15.3268646 34.8007593,15.8370469 35.3677489,16.1819531 C35.9347385,16.5268594 36.6151395,16.6993125 37.408952,16.6993125 C38.271827,16.6993125 38.9715249,16.5336979 39.5080458,16.2024687 C40.0445666,15.8712396 40.4701812,15.4182708 40.7848895,14.8435625 L42.989202,15.8673125 C42.6845145,16.4975417 42.2641812,17.0416458 41.728202,17.499625 C41.1922229,17.9576042 40.5613843,18.307724 39.8356864,18.5499844 C39.1099885,18.7922448 38.3143479,18.913375 37.4487645,18.913375 Z" id="Path"></path>
                <path d="M46.763926,18.653375 L46.763926,5.653375 L49.118551,5.653375 L49.3765198,7.98646875 C49.7280615,7.13930208 50.2469781,6.49532813 50.9332698,6.05454687 C51.6195615,5.61376562 52.466999,5.393375 53.4755823,5.393375 C53.7320615,5.393375 53.98915,5.41382292 54.2468479,5.45471875 C54.5045458,5.49561458 54.7193844,5.56494792 54.8913635,5.66271875 L54.5042073,8.08478125 C54.3197698,8.01544792 54.1086552,7.96189063 53.8708635,7.92410938 C53.6330719,7.88632812 53.3124052,7.8674375 52.9088635,7.8674375 C52.3745094,7.8674375 51.8491604,8.01016667 51.3328167,8.295625 C50.8164729,8.58108333 50.3895719,9.01130208 50.0521135,9.58628125 C49.7146552,10.1612604 49.545926,10.8904792 49.545926,11.7739375 L49.545926,18.653375 L46.763926,18.653375 Z" id="Path"></path>
                <path d="M68.9470867,5.653375 L63.2490242,20.1820937 C62.8758158,21.1874271 62.4661804,21.9854375 62.0201179,22.576125 C61.5740554,23.1668125 61.0674617,23.5923594 60.5003367,23.8527656 C59.9332117,24.1131719 59.2673679,24.243375 58.5028054,24.243375 C57.8698679,24.243375 57.2900138,24.1618542 56.7632429,23.9988125 C56.2364721,23.8357708 55.7730763,23.6170729 55.3730554,23.3427187 L56.0384929,21.1717187 C56.3727013,21.4555521 56.7285763,21.6641615 57.1061179,21.7975469 C57.4836596,21.9309323 57.8848992,21.997625 58.3098367,21.997625 C58.7791908,21.997625 59.2015554,21.8745312 59.5769304,21.6283437 C59.9523054,21.3821562 60.2843471,20.8874792 60.5730554,20.1443125 L61.1413992,18.7208125 L59.7804617,15.496 L55.7212117,5.653375 L58.8363367,5.653375 L61.7117742,13.8112812 L62.4617117,16.2560937 L63.3323054,13.593125 L66.0606804,5.653375 L68.9470867,5.653375 Z" id="Path"></path>
                <polygon id="Path" points="92.692204 1.493375 86.3185477 18.653375 83.0823602 18.653375 76.6871727 1.493375 79.658079 1.493375 83.6657352 12.9049375 84.7110165 16.3015937 85.7465477 12.9354062 89.7635477 1.493375"></polygon>
                <path d="M96.8081878,3.45678125 C96.2123544,3.45678125 95.7526825,3.30525 95.4291721,3.0021875 C95.1056617,2.699125 94.9439065,2.27459375 94.9439065,1.72859375 C94.9439065,1.17934375 95.1056617,0.753932292 95.4291721,0.452359375 C95.7526825,0.150786458 96.2123544,0 96.8081878,0 C97.4040211,0 97.863693,0.150786458 98.1872034,0.452359375 C98.5107138,0.753932292 98.672469,1.17934375 98.672469,1.72859375 C98.672469,2.27459375 98.5107138,2.699125 98.1872034,3.0021875 C97.863693,3.30525 97.4040211,3.45678125 96.8081878,3.45678125 Z M98.1991878,5.653375 L98.1991878,18.653375 L95.4171878,18.653375 L95.4171878,5.653375 L98.1991878,5.653375 Z" id="Shape"></path>
                <path d="M102.52974,18.653375 L102.52974,5.653375 L104.990802,5.653375 L105.187021,9.033375 L104.801896,8.68196875 C105.051334,7.91984375 105.40538,7.29604688 105.864037,6.81057813 C106.322693,6.32510937 106.867474,5.96754167 107.49838,5.737875 C108.129287,5.50820833 108.802104,5.393375 109.516834,5.393375 C110.440375,5.393375 111.269464,5.56948438 112.004099,5.92170312 C112.738735,6.27392187 113.323193,6.80698958 113.757474,7.52090625 C114.191755,8.23482292 114.408896,9.13805208 114.408896,10.2305937 L114.408896,18.653375 L111.627302,18.653375 L111.627302,11.0942812 C111.627302,9.81459375 111.360938,8.92585417 110.828209,8.4280625 C110.295479,7.93027083 109.631531,7.681375 108.836365,7.681375 C108.274656,7.681375 107.721615,7.81388021 107.17724,8.07889062 C106.632865,8.34390104 106.185854,8.77296875 105.836209,9.36609375 C105.486563,9.95921875 105.31174,10.7527604 105.31174,11.7467188 L105.31174,18.653375 L102.52974,18.653375 Z" id="Path"></path>
                <path d="M124.339888,18.913375 C123.043409,18.913375 121.901847,18.6447083 120.915201,18.107375 C119.928555,17.5700417 119.162503,16.7964063 118.617045,15.7864687 C118.071586,14.7765312 117.798857,13.5655 117.798857,12.153375 C117.798857,10.74125 118.071586,9.53021875 118.617045,8.52028125 C119.162503,7.51034375 119.917586,6.73670833 120.882295,6.199375 C121.847003,5.66204167 122.94794,5.393375 124.185107,5.393375 C125.447732,5.393375 126.522399,5.65540625 127.409107,6.17946875 C128.295815,6.70353125 128.972696,7.41602604 129.439748,8.31695312 C129.9068,9.21788021 130.140326,10.2353333 130.140326,11.3693125 C130.140326,11.688625 130.131659,11.986 130.114326,12.2614375 C130.096992,12.536875 130.070992,12.78225 130.036326,12.9975625 L119.594076,12.9975625 L119.594076,10.8562187 L128.818388,10.8562187 L127.444857,11.26125 C127.444857,10.0871875 127.147685,9.18267187 126.553341,8.54770312 C125.958998,7.91273437 125.156315,7.59525 124.145295,7.59525 C123.38642,7.59525 122.732154,7.77176562 122.182498,8.12479687 C121.632841,8.47782812 121.21156,8.99396875 120.918654,9.67321875 C120.625748,10.3524687 120.479295,11.1874479 120.479295,12.1781562 C120.479295,13.1515312 120.634144,13.9759479 120.943841,14.6514062 C121.253539,15.3268646 121.691883,15.8370469 122.258873,16.1819531 C122.825862,16.5268594 123.506263,16.6993125 124.300076,16.6993125 C125.162951,16.6993125 125.862649,16.5336979 126.39917,16.2024687 C126.93569,15.8712396 127.361305,15.4182708 127.676013,14.8435625 L129.880326,15.8673125 C129.575638,16.4975417 129.155305,17.0416458 128.619326,17.499625 C128.083347,17.9576042 127.452508,18.307724 126.72681,18.5499844 C126.001112,18.7922448 125.205472,18.913375 124.339888,18.913375 Z" id="Path"></path>
            </g>
        </g>
    </g>
</svg>